<svg xmlns="http://www.w3.org/2000/svg" xmlns:xlink="http://www.w3.org/1999/xlink" xmlns:lucid="lucid" width="1222" height="484"><g transform="translate(-59 123.99995000000013)" lucid:page-tab-id="0_0"><path d="M80 86a6 6 0 0 1 6-6h208a6 6 0 0 1 6 6v64a6 6 0 0 1-6 6H86a6 6 0 0 1-6-6z" stroke="#b5d6ff" stroke-width="2" fill="#cfe4ff"/><use xlink:href="#a" transform="matrix(1,0,0,1,88,88) translate(77.99609375 35.322265625)"/><path d="M400 86a6 6 0 0 1 6-6h208a6 6 0 0 1 6 6v64a6 6 0 0 1-6 6H406a6 6 0 0 1-6-6z" stroke="#b5d6ff" stroke-width="2" fill="#cfe4ff"/><use xlink:href="#b" transform="matrix(1,0,0,1,408,88) translate(65.994140625 35.322265625)"/><path d="M720 86a6 6 0 0 1 6-6h208a6 6 0 0 1 6 6v64a6 6 0 0 1-6 6H726a6 6 0 0 1-6-6z" stroke="#b5d6ff" stroke-width="2" fill="#cfe4ff"/><use xlink:href="#c" transform="matrix(1,0,0,1,728,88) translate(53.99218750000001 35.322265625)"/><path d="M1040 246a6 6 0 0 1 6-6h208a6 6 0 0 1 6 6v64a6 6 0 0 1-6 6h-208a6 6 0 0 1-6-6z" stroke="#b5d6ff" stroke-width="2" fill="#cfe4ff"/><use xlink:href="#d" transform="matrix(1,0,0,1,1048,248) translate(77.99609375 35.322265625)"/><path d="M1040 86a6 6 0 0 1 6-6h208a6 6 0 0 1 6 6v64a6 6 0 0 1-6 6h-208a6 6 0 0 1-6-6z" stroke="#b5d6ff" stroke-width="2" fill="#cfe4ff"/><use xlink:href="#e" transform="matrix(1,0,0,1,1048,88) translate(59.99316406250001 35.322265625)"/><path d="M1040-74a6 6 0 0 1 6-6h208a6 6 0 0 1 6 6v64a6 6 0 0 1-6 6h-208a6 6 0 0 1-6-6z" stroke="#b5d6ff" stroke-width="2" fill="#cfe4ff"/><use xlink:href="#f" transform="matrix(1,0,0,1,1048,-72) translate(65.994140625 35.322265625)"/><path d="M80-74a6 6 0 0 1 6-6h208a6 6 0 0 1 6 6v64a6 6 0 0 1-6 6H86a6 6 0 0 1-6-6z" stroke="#8ee895" stroke-width="2" fill="#c3f7c8"/><use xlink:href="#g" transform="matrix(1,0,0,1,88,-72) translate(59.99316406250001 35.322265625)"/><path d="M190-2v62.5" stroke="#008a0e" stroke-width="2" fill="none"/><path d="M190.97-1.97h-1.94V-3h1.94z" stroke="#008a0e" stroke-width=".05" fill="#008a0e"/><path d="M190 75.76l-4.63-14.26h9.26z" stroke="#008a0e" stroke-width="2" fill="#008a0e"/><path d="M720 246a6 6 0 0 1 6-6h208a6 6 0 0 1 6 6v64a6 6 0 0 1-6 6H726a6 6 0 0 1-6-6z" stroke="#ff8f8f" stroke-width="2" fill="#ffd9d9"/><use xlink:href="#h" transform="matrix(1,0,0,1,728,248) translate(41.99023437500001 35.322265625)"/><path d="M942 278h78.5" stroke="#e81313" stroke-width="2" fill="none"/><path d="M942.03 278.98H941v-1.96h1.03z" stroke="#e81313" stroke-width=".05" fill="#e81313"/><path d="M1035.76 278l-14.26 4.63v-9.26z" stroke="#e81313" stroke-width="2" fill="#e81313"/><path d="M1150 238v-62.5" stroke="#1071e5" stroke-width="2" fill="none"/><path d="M1150.97 239h-1.94v-1.03h1.94z" stroke="#1071e5" stroke-width=".05" fill="#1071e5"/><path d="M1150 160.24l4.63 14.26h-9.27z" stroke="#1071e5" stroke-width="2" fill="#1071e5"/><path d="M942 278h42a6 6 0 0 0 6-6V124a6 6 0 0 1 6-6h24.5" stroke="#e81313" stroke-width="2" fill="none"/><path d="M942.03 278.98H941v-1.96h1.03z" stroke="#e81313" stroke-width=".05" fill="#e81313"/><path d="M1035.76 118l-14.26 4.64v-9.28z" stroke="#e81313" stroke-width="2" fill="#e81313"/><path d="M720-74a6 6 0 0 1 6-6h208a6 6 0 0 1 6 6v64a6 6 0 0 1-6 6H726a6 6 0 0 1-6-6z" stroke="#ff8f8f" stroke-width="2" fill="#ffd9d9"/><use xlink:href="#i" transform="matrix(1,0,0,1,728,-72) translate(53.99218750000001 35.322265625)"/><path d="M942-42h78.5" stroke="#e81313" stroke-width="2" fill="none"/><path d="M942.03-41.02H941v-1.95h1.03z" stroke="#e81313" stroke-width=".05" fill="#e81313"/><path d="M1035.76-42l-14.26 4.63v-9.27z" stroke="#e81313" stroke-width="2" fill="#e81313"/><path d="M830 238v-62.5" stroke="#e81313" stroke-width="2" fill="none"/><path d="M830.98 239H829v-1.03H831z" stroke="#e81313" stroke-width=".05" fill="#e81313"/><path d="M830 160.24l4.63 14.26h-9.26z" stroke="#e81313" stroke-width="2" fill="#e81313"/><path d="M1150 78V45a6 6 0 0 0-6-6H836a6 6 0 0 0-6 6v15.5" stroke="#1071e5" stroke-width="2" fill="none"/><path d="M1150.97 79h-1.94v-1.03h1.94z" stroke="#1071e5" stroke-width=".05" fill="#1071e5"/><path d="M830 75.76l-4.63-14.26h9.26z" stroke="#1071e5" stroke-width="2" fill="#1071e5"/><path d="M190-82v-33a6 6 0 0 1 6-6h308a6 6 0 0 1 6 6V60.5" stroke="#008a0e" stroke-width="2" fill="none"/><path d="M190.97-81h-1.94v-1.03h1.94z" stroke="#008a0e" stroke-width=".05" fill="#008a0e"/><path d="M510 75.76l-4.63-14.26h9.26z" stroke="#008a0e" stroke-width="2" fill="#008a0e"/><path d="M718 278H540.67a6 6 0 0 1-6-6v-96.5" stroke="#e81313" stroke-width="2" fill="none"/><path d="M719 278.98h-1.03v-1.96H719z" stroke="#e81313" stroke-width=".05" fill="#e81313"/><path d="M534.67 160.24l4.63 14.26h-9.27z" stroke="#e81313" stroke-width="2" fill="#e81313"/><path d="M1150-82v-33a6 6 0 0 0-6-6H540.67a6 6 0 0 0-6 6V60.5" stroke="#1071e5" stroke-width="2" fill="none"/><path d="M1150.97-81h-1.94v-1.03h1.94z" stroke="#1071e5" stroke-width=".05" fill="#1071e5"/><path d="M534.67 75.76l-4.64-14.26h9.27z" stroke="#1071e5" stroke-width="2" fill="#1071e5"/><path d="M718 118h-78.5" stroke="#1071e5" stroke-width="2" fill="none"/><path d="M719 118.97h-1.03v-1.94H719z" stroke="#1071e5" stroke-width=".05" fill="#1071e5"/><path d="M624.24 118l14.26-4.64v9.28z" stroke="#1071e5" stroke-width="2" fill="#1071e5"/><path d="M398 118h-78.5" stroke="#1071e5" stroke-width="2" fill="none"/><path d="M399 118.97h-1.03v-1.94H399z" stroke="#1071e5" stroke-width=".05" fill="#1071e5"/><path d="M304.24 118l14.26-4.64v9.28z" stroke="#1071e5" stroke-width="2" fill="#1071e5"/><path d="M1150 318v33a6 6 0 0 1-6 6H516a6 6 0 0 1-6-6V175.5" stroke="#1071e5" stroke-width="2" fill="none"/><path d="M1150.97 318.03h-1.94V317h1.94z" stroke="#1071e5" stroke-width=".05" fill="#1071e5"/><path d="M510 160.24l4.63 14.26h-9.26z" stroke="#1071e5" stroke-width="2" fill="#1071e5"/><path d="M80 246a6 6 0 0 1 6-6h208a6 6 0 0 1 6 6v64a6 6 0 0 1-6 6H86a6 6 0 0 1-6-6z" stroke="#fcce14" stroke-width="2" fill="#fff7a1"/><use xlink:href="#j" transform="matrix(1,0,0,1,88,248) translate(71.9951171875 35.322265625)"/><path d="M190 158v10.42m0 10.4v20.84m0 10.42v10.42" stroke="#1071e5" stroke-width="2" fill="none"/><path d="M190.97 158.03h-1.94V157h1.94z" stroke="#1071e5" stroke-width=".05" fill="#1071e5"/><path d="M190 235.76l-4.63-14.26h9.26z" stroke="#1071e5" stroke-width="2" fill="#1071e5"/><defs><path fill="#282c33" d="M904-1102c199 0 220 177 220 381V0H956v-686c-3-114 0-215-60-264-70-33-125-4-158 71-26 56-39 140-39 252V0H531v-686c-3-114-1-215-61-264-78-41-136 24-157 84-24 69-39 159-39 259V0H105c-3-360 6-732-6-1082h149c6 50 3 123 8 175 36-100 83-195 216-195 135 0 166 79 196 196 42-105 93-196 236-196" id="k"/><path fill="#282c33" d="M1000-272c3 95 12 159 101 161 21 0 41-3 59-7V-6c-44 10-86 16-139 16-141 2-191-84-197-217h-6C748-76 648 20 446 20c-207 0-318-120-318-322 0-266 194-348 454-354l236-4c12-191-40-305-222-305-140 0-220 47-232 172l-188-17c33-204 181-292 423-292 255 0 401 118 401 364v466zm-683-27c0 109 63 184 175 182 166-3 259-96 306-217 24-65 20-120 20-200-232 7-501-28-501 235" id="l"/><path fill="#282c33" d="M745-142h380V0H143v-142h422v-798H246v-142h499v940zM545-1292v-192h200v192H545" id="m"/><path fill="#282c33" d="M706-1102c241 0 344 136 343 381V0H868v-695c1-168-57-273-220-268-190 6-283 138-283 336V0H185c-3-360 6-732-6-1082h170c4 54 7 126 8 185h3c63-121 164-204 346-205" id="n"/><g id="a"><use transform="matrix(0.009765624999999998,0,0,0.009765624999999998,0,0)" xlink:href="#k"/><use transform="matrix(0.009765624999999998,0,0,0.009765624999999998,12.001953124999998,0)" xlink:href="#l"/><use transform="matrix(0.009765624999999998,0,0,0.009765624999999998,24.003906249999996,0)" xlink:href="#m"/><use transform="matrix(0.009765624999999998,0,0,0.009765624999999998,36.00585937499999,0)" xlink:href="#n"/></g><path fill="#282c33" d="M839-1102c70 0 148 7 206 17v167c-112-18-268-36-363 15-129 69-208 203-208 395V0H294c-10-367 32-789-52-1082h171c21 75 41 161 48 250h5c67-152 152-270 373-270" id="o"/><path fill="#282c33" d="M615-1102c343 0 484 203 482 560-1 347-147 562-488 562-336 0-475-219-479-562-4-349 156-560 485-560zm-8 989c240 0 301-180 301-429 0-245-55-427-290-427-236 0-299 181-299 427 0 243 61 429 288 429" id="p"/><path fill="#282c33" d="M528 20c-247 0-343-132-343-381v-721h180v686c-4 177 45 284 224 277 194-8 279-136 279-336v-627h181c3 360-6 732 6 1082H885c-4-54-7-126-8-185h-3C809-64 714 20 528 20" id="q"/><path fill="#282c33" d="M682 16c-209 0-323-80-324-285v-671H190v-142h170l58-282h120v282h432v142H538v652c2 114 60 155 182 155 106 0 209-16 297-34v137C921-4 806 16 682 16" id="r"/><path fill="#282c33" d="M617-1102c355 0 481 238 477 599H322c5 222 84 388 301 388 144 0 244-59 284-166l158 45C1002-72 854 20 623 20c-342 0-490-220-490-568 0-346 151-554 484-554zm291 461c-18-192-90-328-289-328-194 0-287 128-295 328h584" id="s"/><path fill="#282c33" d="M873-819c-18-114-119-146-250-146-163 0-245 50-245 151 0 151 170 148 294 185 182 54 388 94 388 320 0 240-189 325-439 329-245 4-410-69-454-268l159-31c24 133 136 168 295 165 144-2 270-31 270-171 0-164-195-160-331-202-167-52-350-87-350-299 0-218 173-315 413-313 220 2 373 77 412 260" id="t"/><g id="b"><use transform="matrix(0.009765624999999998,0,0,0.009765624999999998,0,0)" xlink:href="#o"/><use transform="matrix(0.009765624999999998,0,0,0.009765624999999998,12.001953124999998,0)" xlink:href="#p"/><use transform="matrix(0.009765624999999998,0,0,0.009765624999999998,24.003906249999996,0)" xlink:href="#q"/><use transform="matrix(0.009765624999999998,0,0,0.009765624999999998,36.00585937499999,0)" xlink:href="#r"/><use transform="matrix(0.009765624999999998,0,0,0.009765624999999998,48.00781249999999,0)" xlink:href="#s"/><use transform="matrix(0.009765624999999998,0,0,0.009765624999999998,60.009765624999986,0)" xlink:href="#t"/></g><path fill="#282c33" d="M715 0H502L69-1082h202c94 253 197 500 285 758 19 57 36 126 52 183 96-335 234-626 350-941h201" id="u"/><path fill="#282c33" d="M631 20c-350 0-501-215-501-562 0-355 162-560 502-560 250 0 399 118 446 323l-192 14c-23-124-109-196-262-196-242 0-305 171-305 415 1 245 61 427 304 427 151 0 248-77 267-215l190 12C1039-107 883 20 631 20" id="v"/><g id="c"><use transform="matrix(0.009765624999999998,0,0,0.009765624999999998,0,0)" xlink:href="#t"/><use transform="matrix(0.009765624999999998,0,0,0.009765624999999998,12.001953124999998,0)" xlink:href="#s"/><use transform="matrix(0.009765624999999998,0,0,0.009765624999999998,24.003906249999996,0)" xlink:href="#o"/><use transform="matrix(0.009765624999999998,0,0,0.009765624999999998,36.00585937499999,0)" xlink:href="#u"/><use transform="matrix(0.009765624999999998,0,0,0.009765624999999998,48.00781249999999,0)" xlink:href="#m"/><use transform="matrix(0.009765624999999998,0,0,0.009765624999999998,60.009765624999986,0)" xlink:href="#v"/><use transform="matrix(0.009765624999999998,0,0,0.009765624999999998,72.01171874999999,0)" xlink:href="#s"/><use transform="matrix(0.009765624999999998,0,0,0.009765624999999998,84.01367187499999,0)" xlink:href="#t"/></g><path fill="#282c33" d="M865-914c-3-187-2-380-2-570h180v1261c0 76 1 155 6 223H877c-8-49-9-116-10-174h-5C801-44 708 26 530 26c-135 0-234-46-297-139s-95-232-95-419c0-377 131-566 392-566 176 0 271 63 335 184zm-286-51c-222 0-255 197-255 427 0 229 31 425 253 425 237 0 286-195 286-441 0-238-52-411-284-411" id="w"/><g id="d"><use transform="matrix(0.009765624999999998,0,0,0.009765624999999998,0,0)" xlink:href="#w"/><use transform="matrix(0.009765624999999998,0,0,0.009765624999999998,12.001953124999998,0)" xlink:href="#l"/><use transform="matrix(0.009765624999999998,0,0,0.009765624999999998,24.003906249999996,0)" xlink:href="#r"/><use transform="matrix(0.009765624999999998,0,0,0.009765624999999998,36.00585937499999,0)" xlink:href="#l"/></g><path fill="#282c33" d="M648-963c-190 6-283 138-283 336V0H185v-1484h181c-2 197 6 404-9 587h3c62-120 159-205 339-205 242 0 351 135 350 381V0H868v-695c1-168-57-273-220-268" id="x"/><g id="e"><use transform="matrix(0.009765624999999998,0,0,0.009765624999999998,0,0)" xlink:href="#t"/><use transform="matrix(0.009765624999999998,0,0,0.009765624999999998,12.001953124999998,0)" xlink:href="#v"/><use transform="matrix(0.009765624999999998,0,0,0.009765624999999998,24.003906249999996,0)" xlink:href="#x"/><use transform="matrix(0.009765624999999998,0,0,0.009765624999999998,36.00585937499999,0)" xlink:href="#s"/><use transform="matrix(0.009765624999999998,0,0,0.009765624999999998,48.00781249999999,0)" xlink:href="#k"/><use transform="matrix(0.009765624999999998,0,0,0.009765624999999998,60.009765624999986,0)" xlink:href="#l"/><use transform="matrix(0.009765624999999998,0,0,0.009765624999999998,72.01171874999999,0)" xlink:href="#t"/></g><path fill="#282c33" d="M736-142h380V0H134v-142h422v-1200H267v-142h469v1342" id="y"/><g id="f"><use transform="matrix(0.009765624999999998,0,0,0.009765624999999998,0,0)" xlink:href="#k"/><use transform="matrix(0.009765624999999998,0,0,0.009765624999999998,12.001953124999998,0)" xlink:href="#p"/><use transform="matrix(0.009765624999999998,0,0,0.009765624999999998,24.003906249999996,0)" xlink:href="#w"/><use transform="matrix(0.009765624999999998,0,0,0.009765624999999998,36.00585937499999,0)" xlink:href="#s"/><use transform="matrix(0.009765624999999998,0,0,0.009765624999999998,48.00781249999999,0)" xlink:href="#y"/><use transform="matrix(0.009765624999999998,0,0,0.009765624999999998,60.009765624999986,0)" xlink:href="#t"/></g><path fill="#282c33" d="M385-1193v494h676v158H385V0H194v-1349h891v156H385" id="z"/><path fill="#282c33" d="M1034 0L896-382H333L196 0H0l510-1349h217L1228 0h-194zM847-531c-77-225-157-447-231-674-69 231-154 451-232 674h463" id="A"/><path fill="#282c33" d="M622-1349c296 4 497 117 497 404 0 282-193 424-485 431H353V0H162v-1349h460zm-15 684c195-3 320-88 320-277 0-184-129-255-328-254H353v531h254" id="B"/><path fill="#282c33" d="M202-1349h823v156H709v1037h316V0H202v-156h316v-1037H202v-156" id="C"/><g id="g"><use transform="matrix(0.009765624999999998,0,0,0.009765624999999998,0,0)" xlink:href="#z"/><use transform="matrix(0.009765624999999998,0,0,0.009765624999999998,12.001953124999998,0)" xlink:href="#l"/><use transform="matrix(0.009765624999999998,0,0,0.009765624999999998,24.003906249999996,0)" xlink:href="#t"/><use transform="matrix(0.009765624999999998,0,0,0.009765624999999998,36.00585937499999,0)" xlink:href="#r"/><use transform="matrix(0.009765624999999998,0,0,0.009765624999999998,48.00781249999999,0)" xlink:href="#A"/><use transform="matrix(0.009765624999999998,0,0,0.009765624999999998,60.009765624999986,0)" xlink:href="#B"/><use transform="matrix(0.009765624999999998,0,0,0.009765624999999998,72.01171874999999,0)" xlink:href="#C"/></g><path fill="#282c33" d="M614-1226c-167 1-283 53-283 213 0 183 186 193 334 234 230 63 463 120 463 409 0 286-219 387-518 390C309 23 131-98 79-338l185-37c34 165 149 248 351 246 184-2 324-58 324-238 0-203-207-221-372-266-210-57-422-111-422-377 0-267 201-356 470-360 279-5 430 101 480 324l-188 33c-28-141-121-215-293-213" id="D"/><path fill="#282c33" d="M102-681c0-398 126-689 513-689 165 0 291 58 379 174s132 287 132 515c0 353-105 610-380 685 49 143 111 234 276 240 36 1 86-7 115-13v134c-94 24-238 34-327-3-143-59-210-191-259-346-336-41-449-320-449-697zm749 406c94-160 97-656-5-807-57-85-130-132-231-132-104 0-178 47-234 132-101 153-99 655 1 809 57 89 130 138 232 138 109 0 184-49 237-140" id="E"/><path fill="#282c33" d="M237 0v-1349h191v1193h672V0H237" id="F"/><path fill="#282c33" d="M168 279c222 39 310-114 368-290L66-1082h192c120 299 249 590 362 896 115-301 235-597 351-896h190L705 0c-65 164-130 320-275 396-67 36-177 35-262 18V279" id="G"/><g id="h"><use transform="matrix(0.009765624999999998,0,0,0.009765624999999998,0,0)" xlink:href="#D"/><use transform="matrix(0.009765624999999998,0,0,0.009765624999999998,12.001953124999998,0)" xlink:href="#E"/><use transform="matrix(0.009765624999999998,0,0,0.009765624999999998,24.003906249999996,0)" xlink:href="#F"/><use transform="matrix(0.009765624999999998,0,0,0.009765624999999998,36.00585937499999,0)" xlink:href="#A"/><use transform="matrix(0.009765624999999998,0,0,0.009765624999999998,48.00781249999999,0)" xlink:href="#y"/><use transform="matrix(0.009765624999999998,0,0,0.009765624999999998,60.009765624999986,0)" xlink:href="#v"/><use transform="matrix(0.009765624999999998,0,0,0.009765624999999998,72.01171874999999,0)" xlink:href="#x"/><use transform="matrix(0.009765624999999998,0,0,0.009765624999999998,84.01367187499999,0)" xlink:href="#s"/><use transform="matrix(0.009765624999999998,0,0,0.009765624999999998,96.01562499999999,0)" xlink:href="#k"/><use transform="matrix(0.009765624999999998,0,0,0.009765624999999998,108.01757812499999,0)" xlink:href="#G"/></g><g id="i"><use transform="matrix(0.009765624999999998,0,0,0.009765624999999998,0,0)" xlink:href="#B"/><use transform="matrix(0.009765624999999998,0,0,0.009765624999999998,12.001953124999998,0)" xlink:href="#G"/><use transform="matrix(0.009765624999999998,0,0,0.009765624999999998,24.003906249999996,0)" xlink:href="#w"/><use transform="matrix(0.009765624999999998,0,0,0.009765624999999998,36.00585937499999,0)" xlink:href="#l"/><use transform="matrix(0.009765624999999998,0,0,0.009765624999999998,48.00781249999999,0)" xlink:href="#n"/><use transform="matrix(0.009765624999999998,0,0,0.009765624999999998,60.009765624999986,0)" xlink:href="#r"/><use transform="matrix(0.009765624999999998,0,0,0.009765624999999998,72.01171874999999,0)" xlink:href="#m"/><use transform="matrix(0.009765624999999998,0,0,0.009765624999999998,84.01367187499999,0)" xlink:href="#v"/></g><g id="j"><use transform="matrix(0.009765624999999998,0,0,0.009765624999999998,0,0)" xlink:href="#r"/><use transform="matrix(0.009765624999999998,0,0,0.009765624999999998,12.001953124999998,0)" xlink:href="#s"/><use transform="matrix(0.009765624999999998,0,0,0.009765624999999998,24.003906249999996,0)" xlink:href="#t"/><use transform="matrix(0.009765624999999998,0,0,0.009765624999999998,36.00585937499999,0)" xlink:href="#r"/><use transform="matrix(0.009765624999999998,0,0,0.009765624999999998,48.00781249999999,0)" xlink:href="#t"/></g></defs></g></svg>