<svg xmlns="http://www.w3.org/2000/svg" xmlns:xlink="http://www.w3.org/1999/xlink" xmlns:lucid="lucid" width="1122" height="463"><g transform="translate(-99.00000000000003 201.99995000000013)" lucid:page-tab-id="0_0"><path d="M100 7a6 6 0 0 1 6-6h208a6 6 0 0 1 6 6v68a6 6 0 0 1-6 6H106a6 6 0 0 1-6-6z" stroke="#6db1ff" stroke-width="2" fill="#cfe4ff"/><use xlink:href="#a" transform="matrix(1,0,0,1,108.00000000000003,8.999950000000126) translate(77.99609375 38.0986328125)"/><path d="M400 7a6 6 0 0 1 6-6h208a6 6 0 0 1 6 6v68a6 6 0 0 1-6 6H406a6 6 0 0 1-6-6z" stroke="#6db1ff" stroke-width="2" fill="#cfe4ff"/><use xlink:href="#b" transform="matrix(1,0,0,1,408,8.999950000000126) translate(65.994140625 38.0986328125)"/><path d="M700 7a6 6 0 0 1 6-6h208a6 6 0 0 1 6 6v68a6 6 0 0 1-6 6H706a6 6 0 0 1-6-6z" stroke="#6db1ff" stroke-width="2" fill="#cfe4ff"/><use xlink:href="#c" transform="matrix(1,0,0,1,708,8.999950000000126) translate(53.9921875 38.0986328125)"/><path d="M1000 146a6 6 0 0 1 6-6h208a6 6 0 0 1 6 6v68a6 6 0 0 1-6 6h-208a6 6 0 0 1-6-6z" stroke="#6db1ff" stroke-width="2" fill="#cfe4ff"/><use xlink:href="#d" transform="matrix(1,0,0,1,1008,148) translate(77.99609375 38.0986328125)"/><path d="M1000 7a6 6 0 0 1 6-6h208a6 6 0 0 1 6 6v68a6 6 0 0 1-6 6h-208a6 6 0 0 1-6-6z" stroke="#6db1ff" stroke-width="2" fill="#cfe4ff"/><use xlink:href="#e" transform="matrix(1,0,0,1,1008,8.999950000000126) translate(59.9931640625 38.0986328125)"/><path d="M1000-154a6 6 0 0 1 6-6h208a6 6 0 0 1 6 6v68a6 6 0 0 1-6 6h-208a6 6 0 0 1-6-6z" stroke="#6db1ff" stroke-width="2" fill="#cfe4ff"/><use xlink:href="#f" transform="matrix(1,0,0,1,1008,-152) translate(65.994140625 37.322265625)"/><path d="M100-154a6 6 0 0 1 6-6h208a6 6 0 0 1 6 6v68a6 6 0 0 1-6 6H106a6 6 0 0 1-6-6z" stroke="#fcce14" stroke-width="2" fill="#fcfcca"/><use xlink:href="#g" transform="matrix(1,0,0,1,108.00000000000003,-152) translate(59.9931640625 38.0986328125)"/><path d="M210-78v59.5" stroke="#fcce14" stroke-width="2" fill="none"/><path d="M210.97-77.97h-1.94V-79h1.94z" stroke="#fcce14" stroke-width=".05" fill="#fcce14"/><path d="M210-3.24l-4.63-14.26h9.26z" stroke="#fcce14" stroke-width="2" fill="#fcce14"/><path d="M922 180h58.5" stroke="#fe7070" stroke-width="2" fill="none"/><path d="M922.03 180.97H921v-1.94h1.03z" stroke="#fe7070" stroke-width=".05" fill="#fe7070"/><path d="M995.76 180l-14.26 4.63v-9.26z" stroke="#fe7070" stroke-width="2" fill="#fe7070"/><path d="M1110 138v-37.5" stroke="#6db1ff" stroke-width="2" fill="none"/><path d="M1110.97 139h-1.94v-1.03h1.94z" stroke="#6db1ff" stroke-width=".05" fill="#6db1ff"/><path d="M1110 85.24l4.63 14.26h-9.27z" stroke="#6db1ff" stroke-width="2" fill="#6db1ff"/><path d="M922 180h32a6 6 0 0 0 6-6V47a6 6 0 0 1 6-6h14.5" stroke="#fe7070" stroke-width="2" fill="none"/><path d="M922.03 180.97H921v-1.94h1.03z" stroke="#fe7070" stroke-width=".05" fill="#fe7070"/><path d="M995.76 41l-14.26 4.63v-9.27z" stroke="#fe7070" stroke-width="2" fill="#fe7070"/><path d="M810 138v-37.5" stroke="#fe7070" stroke-width="2" fill="none"/><path d="M810.98 139H809v-1.03H811z" stroke="#fe7070" stroke-width=".05" fill="#fe7070"/><path d="M810 85.24l4.63 14.26h-9.26z" stroke="#fe7070" stroke-width="2" fill="#fe7070"/><path d="M922-120h58.5" stroke="#fe7070" stroke-width="2" fill="none"/><path d="M922.03-119.03H921v-1.94h1.03z" stroke="#fe7070" stroke-width=".05" fill="#fe7070"/><path d="M995.76-120l-14.26 4.64v-9.28z" stroke="#fe7070" stroke-width="2" fill="#fe7070"/><path d="M1110-1v-33a6 6 0 0 0-6-6H816a6 6 0 0 0-6 6v15.5" stroke="#6db1ff" stroke-width="2" fill="none"/><path d="M1110.97 0h-1.94v-1.03h1.94z" stroke="#6db1ff" stroke-width=".05" fill="#6db1ff"/><path d="M810-3.24l-4.63-14.26h9.26z" stroke="#6db1ff" stroke-width="2" fill="#6db1ff"/><path d="M698 180H548.67a6 6 0 0 1-6-6v-73.5" stroke="#fe7070" stroke-width="2" fill="none"/><path d="M699 180.97h-1.03v-1.94H699z" stroke="#fe7070" stroke-width=".05" fill="#fe7070"/><path d="M542.67 85.24l4.63 14.26h-9.27z" stroke="#fe7070" stroke-width="2" fill="#fe7070"/><path d="M1110-162v-33a6 6 0 0 0-6-6H544.67a6 6 0 0 0-6 6v176.5" stroke="#6db1ff" stroke-width="2" fill="none"/><path d="M1110.97-161h-1.94v-1.03h1.94z" stroke="#6db1ff" stroke-width=".05" fill="#6db1ff"/><path d="M538.67-3.24l-4.64-14.26h9.27z" stroke="#6db1ff" stroke-width="2" fill="#6db1ff"/><path d="M210-162v-33a6 6 0 0 1 6-6h259.33a6 6 0 0 1 6 6v176.5" stroke="#fcce14" stroke-width="2" fill="none"/><path d="M210.97-161h-1.94v-1.03h1.94z" stroke="#fcce14" stroke-width=".05" fill="#fcce14"/><path d="M481.33-3.24L476.7-17.5h9.27z" stroke="#fcce14" stroke-width="2" fill="#fcce14"/><path d="M1110 222v32a6 6 0 0 1-6 6H488.67a6 6 0 0 1-6-6V100.5" stroke="#6db1ff" stroke-width="2" fill="none"/><path d="M1110.97 222.03h-1.94V221h1.94z" stroke="#6db1ff" stroke-width=".05" fill="#6db1ff"/><path d="M482.67 85.24l4.63 14.26h-9.27z" stroke="#6db1ff" stroke-width="2" fill="#6db1ff"/><path d="M700-154a6 6 0 0 1 6-6h208a6 6 0 0 1 6 6v68a6 6 0 0 1-6 6H706a6 6 0 0 1-6-6z" stroke="#ff8f8f" stroke-width="2" fill="#ffd9d9"/><use xlink:href="#h" transform="matrix(1,0,0,1,708,-152) translate(53.9921875 38.0986328125)"/><path d="M698 41h-58.5" stroke="#6db1ff" stroke-width="2" fill="none"/><path d="M699 41.98h-1.03v-1.95H699z" stroke="#6db1ff" stroke-width=".05" fill="#6db1ff"/><path d="M624.24 41l14.26-4.63v9.27z" stroke="#6db1ff" stroke-width="2" fill="#6db1ff"/><path d="M398 41h-58.5" stroke="#6db1ff" stroke-width="2" fill="none"/><path d="M399 41.98h-1.03v-1.95H399z" stroke="#6db1ff" stroke-width=".05" fill="#6db1ff"/><path d="M324.24 41l14.26-4.63v9.27z" stroke="#6db1ff" stroke-width="2" fill="#6db1ff"/><path d="M700 146a6 6 0 0 1 6-6h208a6 6 0 0 1 6 6v68a6 6 0 0 1-6 6H706a6 6 0 0 1-6-6z" stroke="#ff8f8f" stroke-width="2" fill="#ffd9d9"/><use xlink:href="#i" transform="matrix(1,0,0,1,708,148) translate(41.990234375 38.0986328125)"/><path d="M100 167a6 6 0 0 1 6-6h208a6 6 0 0 1 6 6v68a6 6 0 0 1-6 6H106a6 6 0 0 1-6-6z" stroke="#8ee895" stroke-width="2" fill="#c3f7c8"/><use xlink:href="#j" transform="matrix(1,0,0,1,108.00000000000003,168.99995000000013) translate(71.9951171875 38.0986328125)"/><path d="M210 83v12.67m0 12.66v19.5m0 6.83v6.84" stroke="#6db1ff" stroke-width="2" fill="none"/><path d="M210.97 83.03h-1.94V82h1.94z" stroke="#6db1ff" stroke-width=".05" fill="#6db1ff"/><path d="M210 156.76l-4.63-14.26h9.26z" stroke="#6db1ff" stroke-width="2" fill="#6db1ff"/><defs><path fill="#282c33" d="M904-1102c199 0 220 177 220 381V0H956v-686c-3-114 0-215-60-264-70-33-125-4-158 71-26 56-39 140-39 252V0H531v-686c-3-114-1-215-61-264-78-41-136 24-157 84-24 69-39 159-39 259V0H105c-3-360 6-732-6-1082h149c6 50 3 123 8 175 36-100 83-195 216-195 135 0 166 79 196 196 42-105 93-196 236-196" id="k"/><path fill="#282c33" d="M1000-272c3 95 12 159 101 161 21 0 41-3 59-7V-6c-44 10-86 16-139 16-141 2-191-84-197-217h-6C748-76 648 20 446 20c-207 0-318-120-318-322 0-266 194-348 454-354l236-4c12-191-40-305-222-305-140 0-220 47-232 172l-188-17c33-204 181-292 423-292 255 0 401 118 401 364v466zm-683-27c0 109 63 184 175 182 166-3 259-96 306-217 24-65 20-120 20-200-232 7-501-28-501 235" id="l"/><path fill="#282c33" d="M745-142h380V0H143v-142h422v-798H246v-142h499v940zM545-1292v-192h200v192H545" id="m"/><path fill="#282c33" d="M706-1102c241 0 344 136 343 381V0H868v-695c1-168-57-273-220-268-190 6-283 138-283 336V0H185c-3-360 6-732-6-1082h170c4 54 7 126 8 185h3c63-121 164-204 346-205" id="n"/><g id="a"><use transform="matrix(0.009765625,0,0,0.009765625,0,0)" xlink:href="#k"/><use transform="matrix(0.009765625,0,0,0.009765625,12.001953125,0)" xlink:href="#l"/><use transform="matrix(0.009765625,0,0,0.009765625,24.00390625,0)" xlink:href="#m"/><use transform="matrix(0.009765625,0,0,0.009765625,36.005859375,0)" xlink:href="#n"/></g><path fill="#282c33" d="M839-1102c70 0 148 7 206 17v167c-112-18-268-36-363 15-129 69-208 203-208 395V0H294c-10-367 32-789-52-1082h171c21 75 41 161 48 250h5c67-152 152-270 373-270" id="o"/><path fill="#282c33" d="M615-1102c343 0 484 203 482 560-1 347-147 562-488 562-336 0-475-219-479-562-4-349 156-560 485-560zm-8 989c240 0 301-180 301-429 0-245-55-427-290-427-236 0-299 181-299 427 0 243 61 429 288 429" id="p"/><path fill="#282c33" d="M528 20c-247 0-343-132-343-381v-721h180v686c-4 177 45 284 224 277 194-8 279-136 279-336v-627h181c3 360-6 732 6 1082H885c-4-54-7-126-8-185h-3C809-64 714 20 528 20" id="q"/><path fill="#282c33" d="M682 16c-209 0-323-80-324-285v-671H190v-142h170l58-282h120v282h432v142H538v652c2 114 60 155 182 155 106 0 209-16 297-34v137C921-4 806 16 682 16" id="r"/><path fill="#282c33" d="M617-1102c355 0 481 238 477 599H322c5 222 84 388 301 388 144 0 244-59 284-166l158 45C1002-72 854 20 623 20c-342 0-490-220-490-568 0-346 151-554 484-554zm291 461c-18-192-90-328-289-328-194 0-287 128-295 328h584" id="s"/><path fill="#282c33" d="M873-819c-18-114-119-146-250-146-163 0-245 50-245 151 0 151 170 148 294 185 182 54 388 94 388 320 0 240-189 325-439 329-245 4-410-69-454-268l159-31c24 133 136 168 295 165 144-2 270-31 270-171 0-164-195-160-331-202-167-52-350-87-350-299 0-218 173-315 413-313 220 2 373 77 412 260" id="t"/><g id="b"><use transform="matrix(0.009765625,0,0,0.009765625,0,0)" xlink:href="#o"/><use transform="matrix(0.009765625,0,0,0.009765625,12.001953125,0)" xlink:href="#p"/><use transform="matrix(0.009765625,0,0,0.009765625,24.00390625,0)" xlink:href="#q"/><use transform="matrix(0.009765625,0,0,0.009765625,36.005859375,0)" xlink:href="#r"/><use transform="matrix(0.009765625,0,0,0.009765625,48.0078125,0)" xlink:href="#s"/><use transform="matrix(0.009765625,0,0,0.009765625,60.009765625,0)" xlink:href="#t"/></g><path fill="#282c33" d="M715 0H502L69-1082h202c94 253 197 500 285 758 19 57 36 126 52 183 96-335 234-626 350-941h201" id="u"/><path fill="#282c33" d="M631 20c-350 0-501-215-501-562 0-355 162-560 502-560 250 0 399 118 446 323l-192 14c-23-124-109-196-262-196-242 0-305 171-305 415 1 245 61 427 304 427 151 0 248-77 267-215l190 12C1039-107 883 20 631 20" id="v"/><g id="c"><use transform="matrix(0.009765625,0,0,0.009765625,0,0)" xlink:href="#t"/><use transform="matrix(0.009765625,0,0,0.009765625,12.001953125,0)" xlink:href="#s"/><use transform="matrix(0.009765625,0,0,0.009765625,24.00390625,0)" xlink:href="#o"/><use transform="matrix(0.009765625,0,0,0.009765625,36.005859375,0)" xlink:href="#u"/><use transform="matrix(0.009765625,0,0,0.009765625,48.0078125,0)" xlink:href="#m"/><use transform="matrix(0.009765625,0,0,0.009765625,60.009765625,0)" xlink:href="#v"/><use transform="matrix(0.009765625,0,0,0.009765625,72.01171875,0)" xlink:href="#s"/><use transform="matrix(0.009765625,0,0,0.009765625,84.013671875,0)" xlink:href="#t"/></g><path fill="#282c33" d="M865-914c-3-187-2-380-2-570h180v1261c0 76 1 155 6 223H877c-8-49-9-116-10-174h-5C801-44 708 26 530 26c-135 0-234-46-297-139s-95-232-95-419c0-377 131-566 392-566 176 0 271 63 335 184zm-286-51c-222 0-255 197-255 427 0 229 31 425 253 425 237 0 286-195 286-441 0-238-52-411-284-411" id="w"/><g id="d"><use transform="matrix(0.009765625,0,0,0.009765625,0,0)" xlink:href="#w"/><use transform="matrix(0.009765625,0,0,0.009765625,12.001953125,0)" xlink:href="#l"/><use transform="matrix(0.009765625,0,0,0.009765625,24.00390625,0)" xlink:href="#r"/><use transform="matrix(0.009765625,0,0,0.009765625,36.005859375,0)" xlink:href="#l"/></g><path fill="#282c33" d="M648-963c-190 6-283 138-283 336V0H185v-1484h181c-2 197 6 404-9 587h3c62-120 159-205 339-205 242 0 351 135 350 381V0H868v-695c1-168-57-273-220-268" id="x"/><g id="e"><use transform="matrix(0.009765625,0,0,0.009765625,0,0)" xlink:href="#t"/><use transform="matrix(0.009765625,0,0,0.009765625,12.001953125,0)" xlink:href="#v"/><use transform="matrix(0.009765625,0,0,0.009765625,24.00390625,0)" xlink:href="#x"/><use transform="matrix(0.009765625,0,0,0.009765625,36.005859375,0)" xlink:href="#s"/><use transform="matrix(0.009765625,0,0,0.009765625,48.0078125,0)" xlink:href="#k"/><use transform="matrix(0.009765625,0,0,0.009765625,60.009765625,0)" xlink:href="#l"/><use transform="matrix(0.009765625,0,0,0.009765625,72.01171875,0)" xlink:href="#t"/></g><path fill="#282c33" d="M904-1102c199 0 220 177 220 381V0H956v-686c-3-114 0-215-60-264-70-33-125-4-158 71-26 56-39 140-39 252V0H531v-686c-3-114-1-215-61-264-78-41-136 24-157 84-24 69-39 159-39 259V0H105c-3-360 6-732-6-1082h149c6 50 3 123 8 175 36-100 83-195 216-195 135 0 166 79 196 196 42-105 93-196 236-196" id="y"/><path fill="#282c33" d="M615-1102c343 0 484 203 482 560-1 347-147 562-488 562-336 0-475-219-479-562-4-349 156-560 485-560zm-8 989c240 0 301-180 301-429 0-245-55-427-290-427-236 0-299 181-299 427 0 243 61 429 288 429" id="z"/><path fill="#282c33" d="M865-914c-3-187-2-380-2-570h180v1261c0 76 1 155 6 223H877c-8-49-9-116-10-174h-5C801-44 708 26 530 26c-135 0-234-46-297-139s-95-232-95-419c0-377 131-566 392-566 176 0 271 63 335 184zm-286-51c-222 0-255 197-255 427 0 229 31 425 253 425 237 0 286-195 286-441 0-238-52-411-284-411" id="A"/><path fill="#282c33" d="M617-1102c355 0 481 238 477 599H322c5 222 84 388 301 388 144 0 244-59 284-166l158 45C1002-72 854 20 623 20c-342 0-490-220-490-568 0-346 151-554 484-554zm291 461c-18-192-90-328-289-328-194 0-287 128-295 328h584" id="B"/><path fill="#282c33" d="M736-142h380V0H134v-142h422v-1200H267v-142h469v1342" id="C"/><path fill="#282c33" d="M873-819c-18-114-119-146-250-146-163 0-245 50-245 151 0 151 170 148 294 185 182 54 388 94 388 320 0 240-189 325-439 329-245 4-410-69-454-268l159-31c24 133 136 168 295 165 144-2 270-31 270-171 0-164-195-160-331-202-167-52-350-87-350-299 0-218 173-315 413-313 220 2 373 77 412 260" id="D"/><g id="f"><use transform="matrix(0.009765625,0,0,0.009765625,0,0)" xlink:href="#y"/><use transform="matrix(0.009765625,0,0,0.009765625,12.001953125,0)" xlink:href="#z"/><use transform="matrix(0.009765625,0,0,0.009765625,24.00390625,0)" xlink:href="#A"/><use transform="matrix(0.009765625,0,0,0.009765625,36.005859375,0)" xlink:href="#B"/><use transform="matrix(0.009765625,0,0,0.009765625,48.0078125,0)" xlink:href="#C"/><use transform="matrix(0.009765625,0,0,0.009765625,60.009765625,0)" xlink:href="#D"/></g><path fill="#282c33" d="M385-1193v494h676v158H385V0H194v-1349h891v156H385" id="E"/><path fill="#282c33" d="M1034 0L896-382H333L196 0H0l510-1349h217L1228 0h-194zM847-531c-77-225-157-447-231-674-69 231-154 451-232 674h463" id="F"/><path fill="#282c33" d="M622-1349c296 4 497 117 497 404 0 282-193 424-485 431H353V0H162v-1349h460zm-15 684c195-3 320-88 320-277 0-184-129-255-328-254H353v531h254" id="G"/><path fill="#282c33" d="M202-1349h823v156H709v1037h316V0H202v-156h316v-1037H202v-156" id="H"/><g id="g"><use transform="matrix(0.009765625,0,0,0.009765625,0,0)" xlink:href="#E"/><use transform="matrix(0.009765625,0,0,0.009765625,12.001953125,0)" xlink:href="#l"/><use transform="matrix(0.009765625,0,0,0.009765625,24.00390625,0)" xlink:href="#t"/><use transform="matrix(0.009765625,0,0,0.009765625,36.005859375,0)" xlink:href="#r"/><use transform="matrix(0.009765625,0,0,0.009765625,48.0078125,0)" xlink:href="#F"/><use transform="matrix(0.009765625,0,0,0.009765625,60.009765625,0)" xlink:href="#G"/><use transform="matrix(0.009765625,0,0,0.009765625,72.01171875,0)" xlink:href="#H"/></g><path fill="#282c33" d="M168 279c222 39 310-114 368-290L66-1082h192c120 299 249 590 362 896 115-301 235-597 351-896h190L705 0c-65 164-130 320-275 396-67 36-177 35-262 18V279" id="I"/><g id="h"><use transform="matrix(0.009765625,0,0,0.009765625,0,0)" xlink:href="#G"/><use transform="matrix(0.009765625,0,0,0.009765625,12.001953125,0)" xlink:href="#I"/><use transform="matrix(0.009765625,0,0,0.009765625,24.00390625,0)" xlink:href="#w"/><use transform="matrix(0.009765625,0,0,0.009765625,36.005859375,0)" xlink:href="#l"/><use transform="matrix(0.009765625,0,0,0.009765625,48.0078125,0)" xlink:href="#n"/><use transform="matrix(0.009765625,0,0,0.009765625,60.009765625,0)" xlink:href="#r"/><use transform="matrix(0.009765625,0,0,0.009765625,72.01171875,0)" xlink:href="#m"/><use transform="matrix(0.009765625,0,0,0.009765625,84.013671875,0)" xlink:href="#v"/></g><path fill="#282c33" d="M614-1226c-167 1-283 53-283 213 0 183 186 193 334 234 230 63 463 120 463 409 0 286-219 387-518 390C309 23 131-98 79-338l185-37c34 165 149 248 351 246 184-2 324-58 324-238 0-203-207-221-372-266-210-57-422-111-422-377 0-267 201-356 470-360 279-5 430 101 480 324l-188 33c-28-141-121-215-293-213" id="J"/><path fill="#282c33" d="M102-681c0-398 126-689 513-689 165 0 291 58 379 174s132 287 132 515c0 353-105 610-380 685 49 143 111 234 276 240 36 1 86-7 115-13v134c-94 24-238 34-327-3-143-59-210-191-259-346-336-41-449-320-449-697zm749 406c94-160 97-656-5-807-57-85-130-132-231-132-104 0-178 47-234 132-101 153-99 655 1 809 57 89 130 138 232 138 109 0 184-49 237-140" id="K"/><path fill="#282c33" d="M237 0v-1349h191v1193h672V0H237" id="L"/><path fill="#282c33" d="M736-142h380V0H134v-142h422v-1200H267v-142h469v1342" id="M"/><g id="i"><use transform="matrix(0.009765625,0,0,0.009765625,0,0)" xlink:href="#J"/><use transform="matrix(0.009765625,0,0,0.009765625,12.001953125,0)" xlink:href="#K"/><use transform="matrix(0.009765625,0,0,0.009765625,24.00390625,0)" xlink:href="#L"/><use transform="matrix(0.009765625,0,0,0.009765625,36.005859375,0)" xlink:href="#F"/><use transform="matrix(0.009765625,0,0,0.009765625,48.0078125,0)" xlink:href="#M"/><use transform="matrix(0.009765625,0,0,0.009765625,60.009765625,0)" xlink:href="#v"/><use transform="matrix(0.009765625,0,0,0.009765625,72.01171875,0)" xlink:href="#x"/><use transform="matrix(0.009765625,0,0,0.009765625,84.013671875,0)" xlink:href="#s"/><use transform="matrix(0.009765625,0,0,0.009765625,96.015625,0)" xlink:href="#k"/><use transform="matrix(0.009765625,0,0,0.009765625,108.017578125,0)" xlink:href="#I"/></g><g id="j"><use transform="matrix(0.009765625,0,0,0.009765625,0,0)" xlink:href="#r"/><use transform="matrix(0.009765625,0,0,0.009765625,12.001953125,0)" xlink:href="#s"/><use transform="matrix(0.009765625,0,0,0.009765625,24.00390625,0)" xlink:href="#t"/><use transform="matrix(0.009765625,0,0,0.009765625,36.005859375,0)" xlink:href="#r"/><use transform="matrix(0.009765625,0,0,0.009765625,48.0078125,0)" xlink:href="#t"/></g></defs></g></svg>